<svg width="3368" height="500" viewBox="0 0 3368 500" fill="none" xmlns="http://www.w3.org/2000/svg">
<path d="M581.125 351.582C601.581 341.694 626.613 349.484 637.036 368.981C647.458 388.478 639.324 412.299 618.867 422.187C520.263 469.848 407.962 495.143 289.679 491.374L289.677 491.374C194.929 488.351 105.23 466.959 24.3064 430.862C3.50122 421.582 -5.49543 398.014 4.21219 378.22C13.9198 358.427 38.655 349.905 59.4601 359.185C130.366 390.813 209.018 409.596 292.307 412.254L292.306 412.254C396.242 415.565 494.69 393.36 581.125 351.582Z" fill="white"/>
<path d="M358.936 126C358.936 148.091 341.027 166 318.936 166C296.844 166 278.936 148.091 278.936 126V48C278.936 25.9086 296.844 8 318.936 8C341.027 8 358.936 25.9086 358.936 48V126Z" fill="white"/>
<path d="M474.695 182.246C463.399 201.231 438.852 207.465 419.867 196.169C400.881 184.874 394.648 160.326 405.943 141.341L445.825 74.3081C457.121 55.3228 481.668 49.089 500.653 60.3846C519.639 71.6801 525.872 96.2275 514.577 115.213L474.695 182.246Z" fill="white"/>
<path d="M163.381 182.774C174.905 201.622 199.526 207.559 218.373 196.035C237.221 184.511 243.157 159.89 231.634 141.043L190.945 74.4961C179.421 55.6486 154.8 49.7117 135.953 61.2356C117.105 72.7596 111.168 97.3805 122.692 116.228L163.381 182.774Z" fill="white"/>
<path d="M545.792 285.218C525.599 294.177 501.966 285.069 493.008 264.876C484.049 244.682 493.157 221.05 513.351 212.091L584.649 180.461C604.843 171.502 628.475 180.61 637.434 200.804C646.392 220.997 637.284 244.629 617.091 253.588L545.792 285.218Z" fill="white"/>
<path d="M95.9298 285.277C116.233 293.985 139.75 284.585 148.458 264.282C157.165 243.979 147.765 220.461 127.462 211.754L55.7763 181.01C35.4733 172.303 11.9558 181.703 3.24842 202.006C-5.45892 222.309 3.94122 245.826 24.2442 254.534L95.9298 285.277Z" fill="white"/>
<path d="M1134.62 286.24C1140.92 286.24 1147.75 291.492 1147.75 299.895C1147.75 309.349 1144.08 317.752 1133.04 339.811L1110.46 388.13C1103.63 402.836 1096.8 410.714 1086.82 410.714C1072.64 410.714 1071.06 399.16 1051.63 399.16H877.761C854.123 399.16 836.789 400.735 826.809 400.735C814.202 400.735 810 394.958 810 387.605C810 366.597 843.618 378.676 843.618 342.437V82.9832C843.618 46.7437 810 58.8236 810 37.8151C810 30.4622 814.202 24.6849 826.809 24.6849C836.264 24.6849 853.598 26.2605 877.761 26.2605H1030.62C1049 26.2605 1050.58 14.7059 1063.18 14.7059C1073.69 14.7059 1079.99 21.5336 1088.92 40.9664L1108.88 83.5084C1118.86 103.466 1122.54 112.395 1122.54 121.324C1122.54 130.252 1116.24 134.979 1109.93 134.979C1102.58 134.979 1097.85 130.252 1089.97 122.374C1053.73 83.5084 1032.72 60.3992 989.119 60.3992H950.249C917.681 60.3992 912.954 67.7521 912.954 86.1345V180.147C912.954 189.076 916.106 192.752 928.187 192.752H970.209C1002.78 192.752 1001.2 153.887 1020.64 153.887C1028.51 153.887 1034.29 158.613 1034.29 171.219C1034.29 183.824 1032.72 196.429 1032.72 209.559C1032.72 223.214 1034.29 236.345 1034.29 248.424C1034.29 261.029 1028.51 265.756 1020.64 265.756C1001.2 265.756 1002.78 226.891 970.209 226.891H928.187C916.106 226.891 912.954 230.567 912.954 239.496V339.286C912.954 358.193 918.207 365.021 950.249 365.021H1009.08C1054.25 365.021 1077.89 339.811 1115.18 299.37C1122.54 290.966 1127.27 286.24 1134.62 286.24Z" fill="white"/>
<path d="M1465.19 137.08C1473.6 137.08 1479.9 141.282 1479.9 149.16C1479.9 167.017 1453.64 161.24 1440.51 192.227L1360.66 382.878C1355.41 396.008 1350.16 402.311 1327.05 402.311C1304.46 402.311 1298.68 396.534 1292.9 382.353L1212.54 192.752C1198.88 160.714 1173.67 167.017 1173.67 149.16C1173.67 141.282 1179.97 137.08 1187.85 137.08C1201.51 137.08 1216.74 138.655 1242.48 138.655C1265.59 138.655 1281.35 137.08 1293.95 137.08C1304.46 137.08 1310.76 141.282 1310.76 149.685C1310.76 168.067 1282.4 161.765 1282.4 185.924C1282.4 192.227 1285.03 202.731 1290.8 216.912L1341.23 344.538L1391.13 216.912C1396.38 201.681 1400.06 192.752 1400.06 184.349C1400.06 163.34 1370.65 168.067 1370.65 149.685C1370.65 141.282 1376.42 137.08 1386.93 137.08C1397.96 137.08 1411.09 138.655 1425.27 138.655C1439.46 138.655 1453.11 137.08 1465.19 137.08Z" fill="white"/>
<path d="M1754.91 327.206C1762.26 327.206 1766.99 334.034 1766.99 340.336C1766.99 344.013 1765.41 348.214 1761.74 353.466C1743.35 380.777 1696.6 409.139 1641.97 409.139C1565.28 409.139 1504.88 357.143 1504.88 270.483C1504.88 185.399 1568.96 128.676 1642.5 128.676C1711.84 128.676 1756.48 180.147 1756.48 231.618C1756.48 244.748 1752.28 247.899 1743.35 250.525L1579.99 299.895C1595.75 337.71 1627.79 365.546 1668.76 365.546C1697.13 365.546 1721.29 353.466 1739.68 336.134C1746.5 329.832 1750.18 327.206 1754.91 327.206ZM1633.57 163.866C1596.8 163.866 1569.49 195.903 1569.49 246.324C1569.49 254.202 1570.01 261.555 1571.06 268.908L1677.69 235.294C1686.62 232.668 1689.77 229.517 1689.77 220.063C1689.77 194.853 1666.66 163.866 1633.57 163.866Z" fill="white"/>
<path d="M2005.36 132.878C2030.58 132.878 2047.91 146.534 2047.91 162.29C2047.91 173.845 2043.18 190.126 2034.25 214.811C2031.1 224.79 2026.37 230.567 2017.97 230.567C2010.09 230.567 2006.41 223.74 2002.21 215.336C1994.33 198.004 1986.45 188.55 1973.85 188.55C1951.26 188.55 1913.44 222.689 1913.44 291.492V340.336C1913.44 380.777 1952.31 366.071 1952.31 388.13C1952.31 393.908 1948.11 400.735 1937.6 400.735C1924.47 400.735 1907.14 399.16 1881.92 399.16C1859.34 399.16 1845.15 400.735 1833.07 400.735C1822.57 400.735 1818.36 394.433 1818.36 388.13C1818.36 367.647 1850.41 380.777 1850.41 340.336V220.588C1850.41 187.5 1814.16 203.782 1814.16 181.723C1814.16 172.269 1825.19 165.441 1857.76 150.735C1888.23 136.555 1894.53 134.979 1899.26 134.979C1909.76 134.979 1913.44 143.382 1913.44 156.513V204.307C1930.25 162.815 1967.54 132.878 2005.36 132.878Z" fill="white"/>
<path d="M2368.46 137.08C2376.87 137.08 2383.17 141.282 2383.17 149.16C2383.17 166.492 2356.91 161.24 2341.67 197.479L2248.17 417.542C2226.11 470.063 2194.6 500 2152.57 500C2134.72 500 2118.43 495.273 2113.18 487.92C2104.25 476.891 2094.27 441.176 2094.27 424.37C2094.27 414.916 2099.52 407.563 2106.88 407.563C2112.65 407.563 2116.33 410.189 2121.06 417.017C2138.92 442.752 2151.52 454.307 2166.76 454.307C2184.62 454.307 2199.32 434.349 2211.93 403.361L2212.98 401.261L2118.43 198.004C2101.1 161.24 2076.41 166.492 2076.41 149.16C2076.41 141.282 2082.71 137.08 2091.12 137.08C2104.77 137.08 2120.01 138.655 2145.75 138.655C2168.86 138.655 2184.62 137.08 2197.22 137.08C2207.73 137.08 2214.03 141.282 2214.03 149.685C2214.03 168.067 2185.67 161.765 2185.67 185.924C2185.67 192.227 2188.29 202.731 2194.07 216.912L2246.07 336.134L2294.92 216.912C2300.7 201.681 2303.85 192.752 2303.85 184.349C2303.85 163.34 2274.44 168.067 2274.44 149.685C2274.44 141.282 2280.22 137.08 2290.72 137.08C2301.75 137.08 2315.41 138.655 2329.07 138.655C2343.25 138.655 2356.38 137.08 2368.46 137.08Z" fill="white"/>
<path d="M2687.05 322.479C2687.05 355.042 2724.35 344.013 2724.35 365.021C2724.35 376.05 2713.32 381.828 2678.65 393.382C2649.23 403.887 2641.88 405.462 2637.68 405.462C2624.55 405.462 2624.02 391.807 2624.02 383.403V356.092C2604.59 384.979 2572.54 406.513 2528.42 406.513C2463.81 406.513 2409.18 357.143 2409.18 273.109C2409.18 190.126 2468.01 131.303 2544.71 131.303C2578.85 131.303 2605.11 142.332 2624.02 159.664V84.5588C2624.02 51.9958 2582.52 69.3277 2582.52 45.6933C2582.52 36.2395 2594.08 29.937 2629.27 14.7059C2659.22 2.10084 2668.67 0 2673.4 0C2684.43 0 2687.05 10.5042 2687.05 22.0588V322.479ZM2555.74 361.345C2589.88 361.345 2624.02 334.034 2624.02 284.664V258.403C2624.02 202.206 2584.63 164.391 2545.76 164.391C2502.68 164.391 2475.89 201.155 2475.89 254.202C2475.89 320.903 2515.81 361.345 2555.74 361.345Z" fill="white"/>
<path d="M3054.45 361.345C3060.23 362.395 3063.38 365.546 3063.38 370.798C3063.38 382.878 3041.32 403.361 3008.23 403.361C2985.64 403.361 2965.68 390.756 2955.7 365.546C2935.74 387.08 2901.6 404.937 2859.57 404.937C2803.37 404.937 2767.65 372.374 2767.65 325.63C2767.65 278.887 2807.57 241.597 2876.38 241.597C2900.02 241.597 2919.98 245.273 2937.84 250.525L2936.79 244.223C2929.44 192.752 2908.95 175.42 2876.38 175.42C2853.27 175.42 2832.79 186.45 2815.45 200.63C2808.62 204.832 2803.37 207.458 2798.64 207.458C2792.86 207.458 2786.56 202.731 2786.56 194.853C2786.56 187.5 2792.86 180.147 2799.17 173.319C2818.08 150.735 2855.37 132.353 2897.39 132.353C2964.1 132.353 2989.32 172.269 2997.2 226.891L3009.28 314.076C3014.53 351.366 3026.61 356.092 3054.45 361.345ZM2884.26 366.597C2910.53 366.597 2935.74 351.366 2948.87 334.559L2942.04 281.513C2926.81 275.735 2911.05 273.109 2894.24 273.109C2855.9 273.109 2833.84 289.916 2833.84 319.328C2833.84 347.689 2854.32 366.597 2884.26 366.597Z" fill="white"/>
<path d="M3353.29 137.08C3361.7 137.08 3368 141.282 3368 149.16C3368 166.492 3341.74 161.24 3326.5 197.479L3233 417.542C3210.94 470.063 3179.43 500 3137.4 500C3119.54 500 3103.26 495.273 3098.01 487.92C3089.08 476.891 3079.1 441.176 3079.1 424.37C3079.1 414.916 3084.35 407.563 3091.71 407.563C3097.48 407.563 3101.16 410.189 3105.89 417.017C3123.75 442.752 3136.35 454.307 3151.59 454.307C3169.45 454.307 3184.15 434.349 3196.76 403.361L3197.81 401.261L3103.26 198.004C3085.93 161.24 3061.24 166.492 3061.24 149.16C3061.24 141.282 3067.54 137.08 3075.95 137.08C3089.6 137.08 3104.84 138.655 3130.58 138.655C3153.69 138.655 3169.45 137.08 3182.05 137.08C3192.56 137.08 3198.86 141.282 3198.86 149.685C3198.86 168.067 3170.5 161.765 3170.5 185.924C3170.5 192.227 3173.12 202.731 3178.9 216.912L3230.9 336.134L3279.75 216.912C3285.53 201.681 3288.68 192.752 3288.68 184.349C3288.68 163.34 3259.27 168.067 3259.27 149.685C3259.27 141.282 3265.05 137.08 3275.55 137.08C3286.58 137.08 3300.24 138.655 3313.9 138.655C3328.08 138.655 3341.21 137.08 3353.29 137.08Z" fill="white"/>
</svg>
